# xmcd
#
# Track frame offsets: 
#        150
#        17807
#        33265
#        50627
#        74462
#        92342
#        112392
#        132815
#        155265
#        173845
#
# Disc length: 2560 seconds
#
# Revision: 1
# Processed by: cddbd v1.5.2PL0 Copyright (c) Steve Scherf et al.
# Submitted via: ExactAudioCopy v0.95b3
#
DISCID=8109fe0a
DTITLE=Bogart Co - New Games
DYEAR=1987
DGENRE=Pop
TTITLE0=Angels Calling
TTITLE1=You Can't Get Me
TTITLE2=Freedom
TTITLE3=XX Scream-Over 18 Only
TTITLE4=People
TTITLE5=I Won't Let It Happen
TTITLE6=Kissed By You
TTITLE7=Waiting For You
TTITLE8=Edge Of Our Nerves
TTITLE9=Last Son Of Summer
EXTD=
EXTT0=
EXTT1=
EXTT2=
EXTT3=
EXTT4=
EXTT5=
EXTT6=
EXTT7=
EXTT8=
EXTT9=
PLAYORDER=
